<svg width="1600" height="1200" viewBox="0 0 1600 1200" fill="none" xmlns="http://www.w3.org/2000/svg">
  <rect width="1600" height="1200" fill="#E2E8F0"/>
  <g opacity="0.45">
    <circle cx="260" cy="220" r="170" fill="#CBD5E1"/>
    <circle cx="1280" cy="180" r="220" fill="#F8FAFC"/>
    <circle cx="1370" cy="900" r="250" fill="#CBD5E1"/>
    <circle cx="340" cy="980" r="220" fill="#F1F5F9"/>
  </g>
  <g opacity="0.2" stroke="#94A3B8" stroke-width="28">
    <path d="M530 440C530 380.353 578.353 332 638 332H818C877.647 332 926 380.353 926 440V452C926 511.647 877.647 560 818 560H638C578.353 560 530 511.647 530 452V440Z"/>
    <path d="M1078 620C1130.47 620 1173 662.533 1173 715V788C1173 840.467 1130.47 883 1078 883H998C945.533 883 903 840.467 903 788V715C903 662.533 945.533 620 998 620H1078Z"/>
    <path d="M364 652C431.379 652 486 706.621 486 774C486 841.379 431.379 896 364 896C296.621 896 242 841.379 242 774C242 706.621 296.621 652 364 652Z"/>
  </g>
</svg>
